<mxfile host="app.diagrams.net" modified="2024-01-30T15:31:59.078Z" agent="Mozilla/5.0 (Windows NT 10.0; Win64; x64) AppleWebKit/537.36 (KHTML, like Gecko) Chrome/120.0.0.0 Safari/537.36" version="23.0.1" etag="-MWYhRYS0z4e8xCgLimp" type="github">
  <diagram name="Page-1" id="zg4kMbTG-Et_TQ2_adaX">
    <mxGraphModel>
      <root>
        <mxCell id="0" />
        <mxCell id="1" parent="0" />
      </root>
    </mxGraphModel>
  </diagram>
</mxfile>
